<svg xmlns="http://www.w3.org/2000/svg" width="512" height="512" fill="none" xmlns:v="https://vecta.io/nano"><path d="M223.2 119.754c4.005 0 7.54.813 10.606 2.44 3.129 1.565 5.569 4.005 7.321 7.321 1.814 3.254 2.722 7.446 2.722 12.577V171h-14.642v-26.655c0-4.068-.845-7.071-2.534-9.011s-4.067-2.909-7.133-2.909c-2.128 0-4.036.5-5.726 1.501-1.689.939-3.003 2.378-3.942 4.318s-1.407 4.411-1.407 7.415V171h-14.642v-26.655c0-4.068-.845-7.071-2.534-9.011-1.627-1.939-3.974-2.909-7.04-2.909-2.127 0-4.035.5-5.725 1.501-1.689.939-3.003 2.378-3.942 4.318s-1.408 4.411-1.408 7.415V171h-14.641v-50.495h13.984v13.797l-2.628-4.036c1.752-3.441 4.224-6.038 7.415-7.79 3.254-1.815 6.945-2.722 11.075-2.722 4.63 0 8.666 1.189 12.108 3.567 3.504 2.315 5.819 5.881 6.945 10.699l-5.162-1.408c1.689-3.942 4.38-7.07 8.072-9.385 3.754-2.315 8.04-3.473 12.858-3.473zm59.199 51.997c-5.757 0-10.825-1.126-15.205-3.379-4.317-2.253-7.665-5.319-10.043-9.198-2.377-3.942-3.566-8.416-3.566-13.422 0-5.068 1.157-9.542 3.473-13.421 2.377-3.942 5.6-7.008 9.667-9.198 4.067-2.253 8.666-3.379 13.797-3.379 4.943 0 9.386 1.064 13.328 3.191 4.004 2.065 7.164 5.068 9.479 9.01 2.315 3.88 3.473 8.541 3.473 13.985a23.93 23.93 0 0 1-.094 1.971l-.188 1.971h-41.015v-8.541h33.319l-5.631 2.534c0-2.628-.532-4.912-1.596-6.851s-2.534-3.442-4.411-4.505c-1.877-1.127-4.067-1.69-6.57-1.69s-4.724.563-6.664 1.69c-1.877 1.063-3.348 2.596-4.411 4.599-1.064 1.939-1.596 4.254-1.596 6.945v2.253c0 2.753.594 5.193 1.783 7.32 1.252 2.065 2.972 3.661 5.162 4.787 2.253 1.064 4.881 1.596 7.884 1.596 2.691 0 5.037-.407 7.04-1.22 2.065-.814 3.942-2.034 5.631-3.661l7.79 8.447c-2.315 2.628-5.224 4.662-8.728 6.101-3.504 1.377-7.54 2.065-12.108 2.065zm51.139 0c-4.317 0-8.478-.501-12.483-1.502-3.942-1.064-7.071-2.378-9.386-3.942l4.881-10.512c2.315 1.439 5.037 2.628 8.165 3.567 3.192.876 6.32 1.314 9.386 1.314 3.379 0 5.757-.407 7.133-1.22 1.439-.814 2.159-1.94 2.159-3.379 0-1.189-.563-2.065-1.689-2.628-1.064-.626-2.503-1.095-4.318-1.408s-3.817-.626-6.007-.939c-2.127-.313-4.286-.719-6.476-1.22-2.19-.563-4.192-1.376-6.007-2.44s-3.285-2.503-4.411-4.318c-1.064-1.814-1.596-4.161-1.596-7.039 0-3.191.908-6.007 2.722-8.447 1.877-2.44 4.568-4.349 8.072-5.725 3.504-1.439 7.696-2.159 12.577-2.159 3.441 0 6.945.375 10.512 1.126s6.539 1.846 8.916 3.285l-4.88 10.418c-2.441-1.439-4.912-2.409-7.415-2.909-2.44-.563-4.818-.845-7.133-.845-3.254 0-5.632.438-7.133 1.314s-2.253 2.002-2.253 3.379c0 1.251.532 2.19 1.596 2.816 1.126.625 2.596 1.126 4.411 1.501s3.786.72 5.913 1.033c2.19.25 4.38.657 6.57 1.22s4.161 1.377 5.913 2.44c1.815 1.001 3.285 2.409 4.411 4.224 1.127 1.752 1.69 4.067 1.69 6.945 0 3.129-.939 5.913-2.816 8.354-1.877 2.377-4.599 4.254-8.166 5.631-3.504 1.377-7.79 2.065-12.858 2.065zM203.4 426.34c-4.755 0-9.354-.594-13.797-1.783-4.38-1.126-8.04-2.847-10.981-5.162l5.819-10.512c2.127 1.752 4.818 3.128 8.072 4.129 3.316 1.064 6.57 1.596 9.761 1.596 5.193 0 8.947-1.158 11.263-3.473 2.377-2.315 3.566-5.756 3.566-10.324v-7.602l.939-12.671-.188-12.765v-10.887h13.891v42.048c0 9.386-2.44 16.3-7.321 20.742s-11.889 6.664-21.024 6.664zm-2.253-21.399c-4.692 0-8.947-1.001-12.764-3.004-3.754-2.065-6.789-4.912-9.104-8.541-2.253-3.691-3.379-7.978-3.379-12.858 0-4.943 1.126-9.229 3.379-12.859 2.315-3.691 5.35-6.538 9.104-8.541 3.817-2.002 8.072-3.003 12.764-3.003 4.255 0 8.01.876 11.263 2.628 3.254 1.689 5.788 4.349 7.603 7.978 1.814 3.566 2.722 8.165 2.722 13.797 0 5.569-.908 10.168-2.722 13.797-1.815 3.566-4.349 6.226-7.603 7.978s-7.008 2.628-11.263 2.628zm2.91-12.014c2.565 0 4.849-.501 6.852-1.502 2.002-1.063 3.566-2.534 4.692-4.411s1.69-4.036 1.69-6.476c0-2.503-.563-4.662-1.69-6.476a11.18 11.18 0 0 0-4.692-4.318c-2.003-1.063-4.287-1.595-6.852-1.595s-4.849.532-6.852 1.595c-2.002 1.001-3.597 2.441-4.786 4.318-1.127 1.814-1.69 3.973-1.69 6.476 0 2.44.563 4.599 1.69 6.476 1.189 1.877 2.784 3.348 4.786 4.411 2.003 1.001 4.287 1.502 6.852 1.502zm66.375 15.205c-5.756 0-10.824-1.126-15.204-3.379-4.318-2.253-7.665-5.319-10.043-9.198-2.378-3.942-3.567-8.416-3.567-13.422 0-5.068 1.158-9.542 3.473-13.421 2.378-3.942 5.6-7.008 9.667-9.198 4.067-2.253 8.666-3.379 13.797-3.379 4.943 0 9.386 1.064 13.328 3.191 4.005 2.065 7.164 5.068 9.48 9.01 2.315 3.88 3.472 8.541 3.472 13.985a23.93 23.93 0 0 1-.094 1.971l-.187 1.971h-41.016v-8.541h33.319l-5.631 2.534c0-2.628-.532-4.912-1.596-6.851s-2.534-3.442-4.411-4.505c-1.877-1.127-4.067-1.69-6.57-1.69s-4.724.563-6.664 1.69c-1.877 1.063-3.347 2.596-4.411 4.599-1.064 1.939-1.596 4.254-1.596 6.945v2.253c0 2.753.595 5.193 1.784 7.32 1.251 2.065 2.972 3.661 5.162 4.787 2.252 1.064 4.88 1.596 7.884 1.596 2.69 0 5.037-.407 7.039-1.22 2.065-.814 3.942-2.034 5.632-3.661l7.79 8.447c-2.315 2.628-5.225 4.662-8.729 6.101-3.504 1.377-7.54 2.065-12.108 2.065zm34.151-.751v-50.495h13.985v14.266l-1.971-4.13c1.502-3.566 3.911-6.257 7.227-8.071 3.316-1.877 7.352-2.816 12.107-2.816v13.515a17.27 17.27 0 0 0-1.689-.093c-.501-.063-1.032-.094-1.596-.094-4.004 0-7.258 1.157-9.761 3.472-2.44 2.253-3.66 5.788-3.66 10.606v23.84h-14.642z" fill="#8f36ff"/><rect x="110" y="194.714" width="292" height="118.19" rx="24.333" fill="url(#A)"/><path d="M165.851 279.432c-4.672 0-9.149-.611-13.432-1.835-4.283-1.279-7.731-2.92-10.345-4.922l4.588-10.179c2.503 1.78 5.451 3.254 8.844 4.422 3.448 1.113 6.924 1.669 10.428 1.669 2.67 0 4.811-.251 6.424-.751 1.669-.556 2.892-1.307 3.671-2.253a4.97 4.97 0 0 0 1.168-3.253c0-1.558-.612-2.781-1.835-3.671-1.224-.946-2.837-1.697-4.839-2.253-2.002-.612-4.227-1.168-6.674-1.668-2.392-.557-4.811-1.224-7.259-2.003-2.391-.778-4.588-1.78-6.591-3.003s-3.643-2.837-4.922-4.839c-1.223-2.002-1.835-4.561-1.835-7.675 0-3.338.89-6.369 2.669-9.094 1.836-2.781 4.561-4.978 8.176-6.591 3.671-1.669 8.26-2.503 13.766-2.503a44.55 44.55 0 0 1 10.846 1.335c3.559.834 6.702 2.114 9.427 3.838l-4.171 10.261c-2.725-1.557-5.451-2.697-8.176-3.42-2.725-.779-5.395-1.168-8.009-1.168s-4.756.306-6.424.918-2.865 1.418-3.588 2.419c-.723.946-1.084 2.058-1.084 3.337 0 1.502.612 2.725 1.835 3.671 1.224.89 2.837 1.613 4.839 2.169a160.69 160.69 0 0 0 6.591 1.669 106.92 106.92 0 0 1 7.258 1.919c2.447.723 4.672 1.696 6.674 2.92s3.616 2.836 4.839 4.838c1.28 2.003 1.919 4.533 1.919 7.592a15.79 15.79 0 0 1-2.753 9.011c-1.835 2.725-4.589 4.922-8.259 6.591-3.616 1.668-8.204 2.502-13.766 2.502zm46.444-35.874h28.116v10.512h-28.116v-10.512zm1.001 24.028h31.787v10.845h-45.219v-58.4h44.134v10.846h-30.702v36.709zm54.971-24.028h28.116v10.512h-28.116v-10.512zm1.001 24.028h31.787v10.845h-45.219v-58.4h44.134v10.846h-30.702v36.709zm42.54 10.845v-58.4h11.18l34.456 42.048h-5.423v-42.048h13.349v58.4h-11.096l-34.54-42.048h5.423v42.048h-13.349z" fill="#fff"/><defs><linearGradient id="A" x1="256" y1="194.714" x2="256" y2="312.905" gradientUnits="userSpaceOnUse"><stop stop-color="#8f36ff"/><stop offset="1" stop-color="#6300e0"/></linearGradient></defs></svg>